<?xml version="1.0" encoding="utf-8"?>
<!-- Generator: Adobe Illustrator 23.1.1, SVG Export Plug-In . SVG Version: 6.00 Build 0)  -->
<svg version="1.1" id="Layer_1" xmlns="http://www.w3.org/2000/svg" xmlns:xlink="http://www.w3.org/1999/xlink" x="0px" y="0px"
	 viewBox="0 0 154.64 151.45" style="enable-background:new 0 0 154.64 151.45;" xml:space="preserve">
<style type="text/css">
	.st0{fill:#F4C99A;}
	.st1{fill:#1B4762;}
</style>
<circle class="st0" cx="76.29" cy="75.71" r="72.49"/>
<g>
	<g>
		<g>
			<path class="st1" d="M68.39,73.03c1.85-0.93,3.25-1.97,4.2-3.08c1.7-2.02,2.54-4.69,2.54-8c0-3.22-0.84-5.98-2.52-8.29
				c-2.81-3.76-7.56-5.69-14.27-5.79H31.74v54.31h24.81c2.8,0,5.38-0.24,7.78-0.73c2.39-0.5,4.47-1.4,6.22-2.73
				c1.56-1.15,2.86-2.58,3.9-4.27c1.64-2.55,2.46-5.44,2.46-8.66c0-3.12-0.72-5.77-2.14-7.96C73.32,75.64,71.2,74.05,68.39,73.03z
				 M42.72,57.3H54.7c2.63,0,4.81,0.28,6.51,0.85c1.97,0.82,2.96,2.48,2.96,5.02c0,2.28-0.75,3.87-2.24,4.77
				c-1.5,0.9-3.44,1.35-5.82,1.35H42.72V57.3z M61.67,91.79c-1.33,0.64-3.19,0.96-5.58,0.96H42.72V78.27h13.55
				c2.36,0.02,4.2,0.33,5.51,0.91c2.34,1.06,3.5,3,3.5,5.83C65.29,88.35,64.08,90.6,61.67,91.79z"/>
			<rect x="88.67" y="50.4" class="st1" width="23.59" height="6.76"/>
			<path class="st1" d="M120.46,77.08c-0.49-3.15-1.57-5.91-3.25-8.3c-1.84-2.71-4.18-4.69-7.03-5.94
				c-2.83-1.26-6.03-1.89-9.58-1.88c-5.96,0-10.81,1.87-14.56,5.57c-3.74,3.71-5.61,9.05-5.61,16.01c0,7.42,2.07,12.79,6.22,16.08
				c4.14,3.3,8.92,4.94,14.34,4.94c6.57,0,11.67-1.95,15.32-5.85c2.33-2.46,3.65-4.88,3.94-7.26h-10.87
				c-0.63,1.17-1.36,2.09-2.19,2.76c-1.51,1.23-3.49,1.84-5.9,1.84c-2.3,0-4.25-0.51-5.87-1.51c-2.68-1.61-4.09-4.44-4.27-8.47
				h29.66C120.86,81.58,120.75,78.91,120.46,77.08z M91.42,78.12c0.39-2.61,1.34-4.68,2.84-6.21c1.5-1.53,3.63-2.29,6.35-2.3
				c2.51,0,4.61,0.72,6.32,2.16c1.69,1.45,2.64,3.56,2.83,6.35H91.42z"/>
		</g>
	</g>
</g>
</svg>
